<mxfile host="Electron" agent="Mozilla/5.0 (Windows NT 10.0; Win64; x64) AppleWebKit/537.36 (KHTML, like Gecko) draw.io/28.1.2 Chrome/138.0.7204.243 Electron/37.4.0 Safari/537.36" version="28.1.2">
  <diagram name="Page-1" id="BskFA4LgAPWq8yIwoqpL">
    <mxGraphModel dx="1175" dy="728" grid="1" gridSize="10" guides="1" tooltips="1" connect="1" arrows="1" fold="1" page="1" pageScale="1" pageWidth="1169" pageHeight="827" math="0" shadow="0">
      <root>
        <mxCell id="0" />
        <mxCell id="1" parent="0" />
        <mxCell id="C9YCU5T_WQs_EOy-Rv5d-7" value="" style="swimlane;startSize=0;" vertex="1" parent="1">
          <mxGeometry width="600" height="600" as="geometry" />
        </mxCell>
        <mxCell id="C9YCU5T_WQs_EOy-Rv5d-2" value="" style="endArrow=none;html=1;rounded=0;" edge="1" parent="C9YCU5T_WQs_EOy-Rv5d-7">
          <mxGeometry width="50" height="50" relative="1" as="geometry">
            <mxPoint x="120" y="440" as="sourcePoint" />
            <mxPoint x="200" y="440" as="targetPoint" />
          </mxGeometry>
        </mxCell>
        <mxCell id="C9YCU5T_WQs_EOy-Rv5d-3" value="" style="endArrow=none;html=1;rounded=0;" edge="1" parent="C9YCU5T_WQs_EOy-Rv5d-7">
          <mxGeometry width="50" height="50" relative="1" as="geometry">
            <mxPoint x="160" y="440" as="sourcePoint" />
            <mxPoint x="160" y="150" as="targetPoint" />
          </mxGeometry>
        </mxCell>
        <mxCell id="C9YCU5T_WQs_EOy-Rv5d-4" value="" style="endArrow=none;html=1;rounded=0;" edge="1" parent="C9YCU5T_WQs_EOy-Rv5d-7">
          <mxGeometry width="50" height="50" relative="1" as="geometry">
            <mxPoint x="160" y="150" as="sourcePoint" />
            <mxPoint x="280" y="150" as="targetPoint" />
          </mxGeometry>
        </mxCell>
        <mxCell id="C9YCU5T_WQs_EOy-Rv5d-5" value="" style="endArrow=none;html=1;rounded=0;" edge="1" parent="C9YCU5T_WQs_EOy-Rv5d-7">
          <mxGeometry width="50" height="50" relative="1" as="geometry">
            <mxPoint x="280" y="190" as="sourcePoint" />
            <mxPoint x="280" y="150" as="targetPoint" />
          </mxGeometry>
        </mxCell>
        <mxCell id="C9YCU5T_WQs_EOy-Rv5d-8" value="" style="ellipse;whiteSpace=wrap;html=1;aspect=fixed;" vertex="1" parent="C9YCU5T_WQs_EOy-Rv5d-7">
          <mxGeometry x="260" y="190" width="40" height="40" as="geometry" />
        </mxCell>
        <mxCell id="C9YCU5T_WQs_EOy-Rv5d-9" value="" style="endArrow=none;html=1;rounded=0;entryX=0.5;entryY=1;entryDx=0;entryDy=0;" edge="1" parent="C9YCU5T_WQs_EOy-Rv5d-7" target="C9YCU5T_WQs_EOy-Rv5d-8">
          <mxGeometry width="50" height="50" relative="1" as="geometry">
            <mxPoint x="280" y="370" as="sourcePoint" />
            <mxPoint x="305" y="270" as="targetPoint" />
          </mxGeometry>
        </mxCell>
        <mxCell id="C9YCU5T_WQs_EOy-Rv5d-10" value="" style="endArrow=none;html=1;rounded=0;" edge="1" parent="C9YCU5T_WQs_EOy-Rv5d-7">
          <mxGeometry width="50" height="50" relative="1" as="geometry">
            <mxPoint x="250" y="280" as="sourcePoint" />
            <mxPoint x="280" y="250" as="targetPoint" />
          </mxGeometry>
        </mxCell>
        <mxCell id="C9YCU5T_WQs_EOy-Rv5d-12" value="" style="endArrow=none;html=1;rounded=0;" edge="1" parent="C9YCU5T_WQs_EOy-Rv5d-7">
          <mxGeometry width="50" height="50" relative="1" as="geometry">
            <mxPoint x="310" y="280" as="sourcePoint" />
            <mxPoint x="280" y="250" as="targetPoint" />
          </mxGeometry>
        </mxCell>
        <mxCell id="C9YCU5T_WQs_EOy-Rv5d-13" value="" style="endArrow=none;html=1;rounded=0;" edge="1" parent="C9YCU5T_WQs_EOy-Rv5d-7">
          <mxGeometry width="50" height="50" relative="1" as="geometry">
            <mxPoint x="250" y="400" as="sourcePoint" />
            <mxPoint x="280" y="370" as="targetPoint" />
          </mxGeometry>
        </mxCell>
        <mxCell id="C9YCU5T_WQs_EOy-Rv5d-14" value="" style="endArrow=none;html=1;rounded=0;" edge="1" parent="C9YCU5T_WQs_EOy-Rv5d-7">
          <mxGeometry width="50" height="50" relative="1" as="geometry">
            <mxPoint x="310" y="400" as="sourcePoint" />
            <mxPoint x="280" y="370" as="targetPoint" />
          </mxGeometry>
        </mxCell>
      </root>
    </mxGraphModel>
  </diagram>
</mxfile>
